<svg width="580" height="468" viewBox="0 0 580 468" fill="none" xmlns="http://www.w3.org/2000/svg">
<g clip-path="url(#clip0_1664_1655)">
<rect width="580" height="468" rx="120" fill="#E95675"/>
<path d="M431.001 235.073C430.152 212.674 459.032 202.99 474.01 220.652L522.999 278.418C529.723 286.346 540.739 289.483 550.439 286.23L622.021 262.228C644.408 254.721 664.552 280.108 650.949 298.687L610.197 354.347C603.959 362.867 604.569 374.602 611.685 382.993L657.763 437.327C672.959 455.244 656.496 480.621 633.601 474.573L556.448 454.192C546.667 451.608 536.487 455.021 530.797 462.793L485.915 524.094C472.596 542.285 442.279 532.593 441.418 509.87L438.806 440.962C438.402 430.32 430.682 420.969 419.959 418.136L349.905 399.63C326.522 393.453 324.24 362.077 346.627 354.571L418.21 330.568C427.909 327.316 434.16 318.39 433.778 308.335L431.001 235.073Z" fill="#FF8BA3"/>
<path d="M587.947 463.946C586.542 467.011 583.465 467.994 580.499 469.002C572.339 471.539 563.814 472.942 555.204 473.167C541.474 473.878 527.786 473.593 514.295 470.735C513.157 470.49 512.328 470.451 512.497 471.796C512.904 475.223 510.375 476.697 507.62 477.913C501.577 480.358 495.131 481.853 488.55 482.336C471.223 484.146 453.966 484.082 436.905 480.305C433.791 479.659 430.798 478.591 428.024 477.137C426.964 476.674 426.085 475.921 425.506 474.982C424.928 474.042 424.678 472.961 424.792 471.886C424.96 469.3 424.792 466.791 424.862 464.256C424.946 462.588 424.272 462.135 422.515 462.019C414.762 461.691 407.074 460.563 399.595 458.656C398.78 458.436 397.965 458.217 397.163 457.945C390.292 455.669 389.308 454.376 389.308 447.754C389.308 446.28 389.308 444.818 389.238 443.357L389.378 430.864C391.209 432.927 393.649 434.458 396.405 435.274C410.064 439.697 424.23 440.046 438.479 439.878C440.081 439.878 440.433 439.154 440.405 437.861C440.405 435.416 440.32 432.972 440.405 430.541C440.405 428.937 439.744 428.485 438.114 428.679C435.177 429.028 432.24 429.364 429.275 429.584C423.687 430.2 418.024 429.898 412.552 428.692C409.741 427.993 407.774 426.674 407.394 423.803C407.421 423.413 407.36 423.022 407.215 422.655C407.07 422.288 406.844 421.952 406.551 421.669C406.497 420.508 406.337 419.353 406.073 418.216C405.244 414.026 403.108 410.069 403.389 405.684C405.534 406.526 407.766 407.167 410.05 407.598C417.821 408.698 425.508 407.922 433.195 406.848C448.654 404.714 463.55 401.068 477.533 394.55C479.564 393.682 481.179 392.159 482.072 390.269C483.814 386.687 485.796 383.195 487.848 379.341C489.191 382.827 491.59 385.888 494.762 388.161C509.63 399.697 526.789 407.301 545.198 412.603C551.944 414.556 558.886 416.406 566.137 414.414C565.561 418.294 562.807 421.217 561.317 424.682C560.361 426.894 558.394 428.743 558.506 431.33C556.3 435.106 552.604 435.481 548.458 435.287C543.678 434.946 538.96 434.078 534.405 432.701C527.885 430.903 528.124 430.864 527.829 437.007C527.618 441.391 530.077 446.538 523.5 449.733C525.243 450.03 526.156 450.25 527.098 450.328C538.612 451.453 550.224 451.453 561.739 450.328C570.747 449.358 579.839 448.388 587.962 442.866L587.947 463.946ZM483.829 432.817C492.541 432.968 501.249 432.332 509.827 430.916C515.139 430.024 520.507 429.08 525.13 426.221C528.812 423.945 528.84 421.398 525.13 419.096C522.981 417.803 520.603 416.867 518.104 416.328C497.488 411.388 476.718 411.569 455.891 415.035C451.247 415.654 446.787 417.132 442.78 419.38C439.576 421.294 439.463 423.467 442.316 425.756C444.145 427.109 446.26 428.095 448.527 428.653C460.065 432.028 471.912 432.714 483.829 432.817ZM510.881 453.509C510.322 453.436 509.758 453.406 509.194 453.419C495.764 455.435 482.104 455.813 468.567 454.544C461.161 453.91 453.783 452.953 446.827 450.367C443.82 449.241 440.559 448.129 440.278 444.353C440.208 443.37 439.435 443.435 438.634 443.616C434.615 444.547 430.568 445.439 427.153 447.741C424.019 449.849 424.033 452.371 427.237 454.35C430.284 456.16 433.673 457.428 437.229 458.087C457.406 462.177 478.295 462.3 498.528 458.449C503.062 457.85 507.333 456.124 510.881 453.457V453.509Z" fill="#FED410"/>
<path d="M558.431 431.427C558.318 428.834 560.29 426.98 561.247 424.763C562.74 421.288 565.471 418.28 566.077 414.469C568.048 412.731 567.795 410.813 566.527 408.868C564.195 405.579 561.215 402.72 557.741 400.441C546.913 392.813 534.942 386.669 522.202 382.199C512.515 378.686 502.715 375.302 491.985 375.859C491.613 375.869 491.244 375.796 490.908 375.647C490.573 375.498 490.281 375.278 490.056 375.004C484.001 369.087 477.619 363.462 470.935 358.15C480.397 353.819 490.577 352.562 500.941 352.082H503.531H505.151C508.276 353.184 507.572 356.412 509.29 358.72C510.22 356.127 510.318 353.534 512.993 352.147C516.937 352.135 520.856 352.717 524.596 353.871C525.799 354.112 526.875 354.727 527.644 355.612C528.414 356.497 528.829 357.599 528.82 358.733C529.003 361.248 528.074 364.567 530.031 366.032C531.988 367.497 535.283 367.056 538 367.471C547.497 368.734 556.734 371.304 565.401 375.095C566.91 375.82 568.372 376.626 569.78 377.506C570.974 378.075 571.895 379.032 572.364 380.193C572.832 381.353 572.815 382.632 572.314 383.781C571.441 386.296 571.132 388.967 570.343 391.56C569.766 393.349 570.188 394.036 572.258 394.153C575.338 394.371 578.373 394.964 581.284 395.916C582.7 396.18 583.956 396.929 584.797 398.012C585.638 399.094 586.003 400.43 585.818 401.75C585.578 407.895 585.817 407.895 592.111 409.399C592.844 409.568 593.52 409.749 594.266 409.957C602.207 412.252 602.953 413.159 602.953 420.653C602.953 424.866 602.827 429.093 602.953 433.293C603.062 434.423 602.78 435.555 602.148 436.529C601.515 437.502 600.565 438.266 599.433 438.713C595.989 440.268 592.326 441.372 588.549 441.993C587.578 438.583 584.747 437.027 581.509 435.86C574.06 433.138 566.246 432.269 558.431 431.427Z" fill="#FEA602"/>
<path d="M471.102 358.146C477.783 363.441 484.162 369.049 490.216 374.946C490.44 375.219 490.732 375.439 491.067 375.588C491.403 375.736 491.772 375.809 492.144 375.799C502.869 375.244 512.666 378.617 522.349 382.119C535.085 386.575 547.05 392.699 557.875 400.302C561.348 402.575 564.326 405.424 566.658 408.702C567.924 410.641 568.178 412.58 566.207 414.285C558.944 416.276 551.991 414.428 545.235 412.476C526.797 407.178 509.611 399.553 494.72 388.051C491.543 385.779 489.141 382.721 487.795 379.237C485.74 383.114 483.755 386.578 482.01 390.157C481.116 392.046 479.498 393.568 477.464 394.435C463.459 400.897 448.483 404.593 433.057 406.725C425.386 407.798 417.659 408.573 409.875 407.475C407.587 407.043 405.352 406.403 403.203 405.562L402.57 404.864C401.444 402.887 402.26 401.31 403.752 399.837C407.004 396.606 411.156 394.668 415.392 392.742C422.613 389.55 430.298 387.573 437.913 385.272C446.854 383.314 455.916 381.856 465.049 380.904C464.979 379.534 464.05 379.082 463.445 378.462C458.582 373.691 454.236 368.497 450.468 362.954C447.793 358.857 444.964 354.747 445.387 349.629C447.005 347.045 449.468 347.432 451.931 348.104C457.927 349.733 462.896 353.093 467.977 356.259L471.102 358.146Z" fill="#FEEEA3"/>
<path d="M437.815 385.198C430.22 387.462 422.527 389.479 415.271 392.674C411.044 394.55 406.817 396.555 403.619 399.776C402.126 401.25 401.308 402.828 402.435 404.808L403.07 405.506C402.788 409.891 404.929 413.849 405.761 418.04C406.026 419.177 406.186 420.332 406.24 421.494C401.801 422.529 397.251 423.253 393.207 425.374C390.981 426.539 388.67 427.78 389.064 430.716L388.924 443.212C385.273 442.536 381.721 441.468 378.342 440.03C377.162 439.581 376.17 438.795 375.513 437.789C374.856 436.783 374.568 435.609 374.693 434.442C374.918 429.177 374.904 423.887 374.693 418.609C374.573 417.441 374.868 416.268 375.533 415.266C376.198 414.263 377.198 413.485 378.384 413.047C382.016 411.393 385.919 410.3 389.938 409.813C392.361 409.516 392.84 408.52 392.756 406.58C392.601 402.777 392.756 398.948 392.671 395.145C392.584 394.17 392.82 393.194 393.348 392.345C393.876 391.495 394.672 390.812 395.63 390.385C398.416 388.94 401.445 387.93 404.591 387.397C404.934 387.391 405.271 387.315 405.579 387.175C405.886 387.035 406.155 386.833 406.367 386.586C406.578 386.338 406.727 386.05 406.803 385.743C406.879 385.436 406.879 385.117 406.803 384.81C406.676 381.783 407.015 378.73 406.691 375.755C406.352 372.496 408.1 370.866 411.072 369.857C415.093 368.545 419.27 367.677 423.514 367.27C424.993 367.115 426.458 366.908 427.938 366.727C427.919 367.987 428.183 369.237 428.713 370.4C430.629 375.898 434.616 380.347 437.815 385.198Z" fill="#FEA702"/>
<path d="M558.352 431.415C566.136 432.215 573.919 433.08 581.31 435.712C584.578 436.874 587.397 438.423 588.323 441.817C588.323 448.166 588.323 454.515 588.323 460.865C588.323 461.897 588.701 463.033 587.818 463.962V442.926C579.711 448.437 570.637 449.379 561.648 450.373C550.156 451.496 538.568 451.496 527.077 450.373C526.137 450.295 525.226 450.076 523.487 449.779C530.05 446.592 527.596 441.455 527.806 437.08C528.101 430.95 527.806 430.989 534.37 432.783C538.915 434.157 543.624 435.024 548.394 435.364C552.462 435.596 556.15 435.287 558.352 431.415Z" fill="#FEEDA2"/>
<path d="M437.945 385.443C434.743 380.584 430.752 376.127 428.876 370.594C428.346 369.429 428.082 368.176 428.1 366.914C428.087 366.37 428.206 365.83 428.45 365.335C428.695 364.839 429.057 364.4 429.511 364.05L445.491 349.642C445.068 354.825 447.903 358.893 450.582 363.001C454.358 368.559 458.713 373.766 463.586 378.55C464.193 379.172 465.124 379.625 465.194 380.999C456.022 381.972 446.922 383.456 437.945 385.443Z" fill="#FED410"/>
<path d="M441.347 296.744C449.516 294.99 454.37 290.379 456.232 282.104C458.193 290.314 462.934 295.016 472.26 296.627C463.287 298.446 458.151 302.862 456.303 311.397C454.356 303.109 449.559 298.446 441.347 296.744Z" fill="#FDD717"/>
<path d="M568.103 276.817C570.363 284.126 575.192 288.758 583.545 290.271C575.122 291.953 570.11 296.532 568.355 304.889C566.656 297.205 562.234 292.431 553.516 290.504C561.195 288.007 566.614 284.256 568.103 276.817Z" fill="#FDD817"/>
<path d="M408.227 325.757C400.081 327.302 395.337 331.974 392.951 339.877C391.045 332.09 386.4 327.873 378.197 325.887C386.4 323.447 391.567 319.268 393.022 311.806C394.942 319.45 399.869 324.096 408.227 325.757Z" fill="#FDD817"/>
<path d="M513.065 352.03C510.375 353.324 510.233 356.016 509.341 358.591C507.614 356.287 508.322 353.065 505.179 351.965C504.868 349.234 502.263 348.419 500.281 347.112C498.299 345.805 496.034 345.74 493.457 344.847C500.663 343.618 505.505 340.331 507.996 334.494C508.223 333.937 508.393 333.342 509.228 333.368C510.063 333.394 510.12 333.86 510.304 334.313C512.456 339.658 516.759 342.906 523.045 344.666C519.393 347.177 514.339 347.591 513.065 352.03Z" fill="#FED616"/>
<path d="M527.903 310.523C527.872 311.686 527.47 312.814 526.745 313.766C526.021 314.719 525.007 315.453 523.832 315.876C522.656 316.299 521.371 316.393 520.137 316.145C518.904 315.898 517.777 315.32 516.899 314.485C516.021 313.649 515.431 312.593 515.202 311.45C514.973 310.306 515.117 309.126 515.614 308.057C516.112 306.988 516.941 306.079 517.998 305.443C519.055 304.807 520.292 304.473 521.554 304.483C523.257 304.533 524.872 305.191 526.057 306.319C527.242 307.446 527.904 308.954 527.903 310.523Z" fill="#FDD817"/>
<path d="M437.208 319.94C438.761 320.238 439.905 321.001 439.947 322.45C439.99 323.898 440.428 324.493 442.136 324.519C442.517 324.503 442.897 324.564 443.25 324.696C443.603 324.829 443.92 325.03 444.179 325.286C444.438 325.542 444.634 325.846 444.752 326.179C444.87 326.511 444.907 326.862 444.862 327.209C444.87 327.534 444.805 327.856 444.67 328.157C444.536 328.457 444.335 328.729 444.08 328.955C443.826 329.181 443.523 329.356 443.191 329.47C442.858 329.583 442.504 329.633 442.15 329.615C440.442 329.615 440.004 330.184 439.933 331.658C439.945 332.006 439.876 332.353 439.73 332.674C439.584 332.996 439.364 333.285 439.086 333.523C438.808 333.76 438.478 333.941 438.117 334.052C437.757 334.163 437.375 334.202 436.996 334.167C436.635 334.173 436.276 334.108 435.945 333.977C435.613 333.846 435.315 333.651 435.072 333.406C434.829 333.162 434.646 332.872 434.534 332.557C434.423 332.242 434.386 331.909 434.426 331.581C434.426 330.028 433.819 329.576 432.181 329.55C431.802 329.571 431.422 329.516 431.068 329.388C430.715 329.26 430.396 329.063 430.135 328.81C429.874 328.558 429.676 328.255 429.557 327.925C429.437 327.595 429.397 327.244 429.441 326.899C429.431 326.574 429.495 326.251 429.627 325.95C429.76 325.649 429.959 325.376 430.212 325.149C430.466 324.922 430.768 324.745 431.099 324.63C431.431 324.515 431.785 324.464 432.139 324.48C434.003 324.48 434.44 323.769 434.469 322.217C434.497 320.665 435.796 320.134 437.208 319.94Z" fill="#FCD71A"/>
<path d="M578.246 337.611C578.007 339.129 577.148 340.205 575.429 340.205C573.711 340.205 573.148 340.685 573.204 342.241C573.232 342.564 573.185 342.889 573.068 343.195C572.951 343.501 572.766 343.78 572.525 344.016C572.283 344.252 571.991 344.438 571.666 344.564C571.342 344.689 570.992 344.751 570.64 344.744C570.263 344.784 569.88 344.748 569.519 344.639C569.158 344.53 568.826 344.35 568.547 344.113C568.268 343.875 568.047 343.585 567.9 343.262C567.754 342.939 567.684 342.591 567.697 342.241C567.697 340.763 567.162 340.192 565.471 340.192C565.119 340.207 564.767 340.154 564.437 340.037C564.108 339.92 563.809 339.741 563.559 339.512C563.309 339.282 563.113 339.008 562.984 338.705C562.855 338.403 562.795 338.079 562.809 337.754C562.766 337.432 562.796 337.105 562.899 336.795C563.002 336.485 563.174 336.198 563.406 335.953C563.637 335.709 563.922 335.512 564.241 335.375C564.561 335.238 564.908 335.165 565.26 335.16C566.978 335.096 567.683 334.667 567.711 332.982C567.709 332.656 567.778 332.333 567.914 332.032C568.049 331.732 568.249 331.459 568.501 331.23C568.753 331.002 569.053 330.822 569.381 330.702C569.71 330.582 570.062 330.524 570.415 330.53C570.794 330.499 571.175 330.544 571.533 330.663C571.89 330.782 572.215 330.972 572.484 331.219C572.753 331.467 572.959 331.766 573.088 332.095C573.218 332.424 573.267 332.776 573.232 333.124C573.232 334.771 573.979 335.07 575.514 335.108C577.049 335.147 577.866 336.172 578.246 337.611Z" fill="#FCD81A"/>
<path d="M503.614 352.083H500.965C501.374 351.815 501.828 351.676 502.289 351.676C502.75 351.676 503.205 351.815 503.614 352.083Z" fill="#FED616"/>
<path d="M483.849 432.618C471.952 432.515 460.124 431.829 448.69 428.388C446.427 427.831 444.315 426.844 442.489 425.49C439.683 423.201 439.753 421.027 442.952 419.113C446.952 416.864 451.405 415.386 456.042 414.766C476.834 411.364 497.57 411.183 518.152 416.06C520.647 416.598 523.021 417.535 525.167 418.828C528.829 421.131 528.801 423.679 525.167 425.956C520.551 428.815 515.192 429.759 509.888 430.652C501.3 432.095 492.578 432.754 483.849 432.618Z" fill="#FEEEA2"/>
<path d="M510.68 453.481C507.124 456.092 502.851 457.776 498.32 458.353C478.075 462.15 457.174 462.028 436.984 457.996C433.427 457.345 430.036 456.095 426.987 454.31C423.781 452.359 423.767 449.872 426.902 447.793C430.319 445.524 434.369 444.644 438.39 443.725C439.192 443.547 439.965 443.483 440.036 444.452C440.317 448.176 443.579 449.273 446.588 450.382C453.549 452.933 460.931 453.876 468.341 454.501C481.887 455.753 495.555 455.38 508.993 453.392C509.557 453.379 510.121 453.409 510.68 453.481Z" fill="#FEEEA1"/>
<path d="M389.282 430.905C388.887 427.959 391.2 426.712 393.429 425.544C397.478 423.442 402.034 422.715 406.478 421.65C406.772 421.934 406.999 422.271 407.145 422.64C407.29 423.008 407.352 423.401 407.324 423.792C407.705 426.674 409.737 427.997 412.502 428.698C417.995 429.909 423.679 430.213 429.289 429.594C432.265 429.373 435.213 429.036 438.162 428.685C439.798 428.491 440.518 428.945 440.461 430.555C440.362 432.995 440.461 435.448 440.461 437.901C440.461 439.199 440.137 439.9 438.528 439.926C424.224 440.095 410.005 439.744 396.293 435.305C393.546 434.487 391.112 432.959 389.282 430.905Z" fill="#FEEEA2"/>
</g>
<defs>
<clipPath id="clip0_1664_1655">
<rect width="580" height="468" rx="120" fill="white"/>
</clipPath>
</defs>
</svg>
