<svg width="2063" height="267" viewBox="0 0 2063 267" fill="none" xmlns="http://www.w3.org/2000/svg">
<path d="M0 155L2063 10V112L0 257V155Z" fill="black"/>
<mask id="mask0_1717_1324" style="mask-type:alpha" maskUnits="userSpaceOnUse" x="0" y="10" width="2063" height="247">
<path d="M0 155L2063 10V112L0 257V155Z" fill="black"/>
</mask>
<g mask="url(#mask0_1717_1324)">
<path d="M324.92 -46.6746L463.795 168.642L711.488 103.1L549.625 301.714L688.5 517.03L449.588 424.465L287.725 623.079L301.932 367.256L63.0199 274.691L310.713 209.149L324.92 -46.6746Z" fill="#E95675"/>
<path d="M1805.24 -299.495L2005.55 -139.739L2219.39 -280.88L2129.35 -41.0034L2329.66 118.753L2073.7 107.248L1983.67 347.124L1915.51 100.138L1659.55 88.6324L1873.39 -52.5086L1805.24 -299.495Z" fill="#E95675"/>
</g>
</svg>
